<svg xmlns="http://www.w3.org/2000/svg" xmlns:xlink="http://www.w3.org/1999/xlink" viewBox="0 0 151.685 56.428">
  <defs>
    <style>
      .cls-1 {
        fill: none;
        stroke-miterlimit: 10;
        stroke-width: 0.26px;
      }

      .cls-1, .cls-3 {
        stroke: #707070;
      }

      .cls-2, .cls-3 {
        fill: #fff;
        stroke-width: 0.025px;
      }

      .cls-2 {
        stroke: #333;
        stroke-linecap: round;
        stroke-linejoin: round;
      }

      .cls-4 {
        fill: url(#linear-gradient);
      }

      .cls-5 {
        fill: url(#linear-gradient-2);
      }
    </style>
    <linearGradient id="linear-gradient" y1="0.5" x2="0.999" y2="0.5" gradientUnits="objectBoundingBox">
      <stop offset="0" stop-color="#5e56a5"/>
      <stop offset="0.15" stop-color="#456bb0"/>
      <stop offset="0.37" stop-color="#2783be"/>
      <stop offset="0.59" stop-color="#1294c7"/>
      <stop offset="0.8" stop-color="#059ecd"/>
      <stop offset="1" stop-color="#01a2cf"/>
    </linearGradient>
    <linearGradient id="linear-gradient-2" x1="0.121" y1="0.146" x2="0.708" y2="0.855" gradientUnits="objectBoundingBox">
      <stop offset="0" stop-color="#f78d28"/>
      <stop offset="0.25" stop-color="#f6862d"/>
      <stop offset="0.61" stop-color="#f4713b"/>
      <stop offset="1" stop-color="#f0554f"/>
    </linearGradient>
  </defs>
  <g id="Gradient_Logo" data-name="Gradient Logo" transform="translate(0.013)">
    <path id="Path_1" data-name="Path 1" class="cls-1" d="M1216.64,545.88" transform="translate(-1141.614 -541.888)"/>
    <path id="Path_2" data-name="Path 2" class="cls-2" d="M438.94,857.911V839.28h1.729v18.631Z" transform="translate(-438.94 -806.983)"/>
    <path id="Path_3" data-name="Path 3" class="cls-2" d="M483.171,897.091a6.57,6.57,0,0,0,.316,2.056,4.789,4.789,0,0,0,.936,1.682,4.476,4.476,0,0,0,1.57,1.138,5.3,5.3,0,0,0,2.189.427,5.145,5.145,0,0,0,2.91-.8,3.845,3.845,0,0,0,1.613-2.277h1.929a7.932,7.932,0,0,1-.835,1.772,5.634,5.634,0,0,1-1.3,1.423,5.783,5.783,0,0,1-1.844.944,8.252,8.252,0,0,1-2.477.337,7.982,7.982,0,0,1-3.087-.543,5.767,5.767,0,0,1-2.132-1.488,6.053,6.053,0,0,1-1.231-2.229,9.123,9.123,0,0,1-.4-2.756,7.965,7.965,0,0,1,.476-2.769,6.85,6.85,0,0,1,1.351-2.264,6.229,6.229,0,0,1,2.146-1.527,7.12,7.12,0,0,1,2.881-.557,6.261,6.261,0,0,1,4.839,1.9,7.771,7.771,0,0,1,1.729,5.525Zm9.737-1.294a5.582,5.582,0,0,0-.3-1.85,4.085,4.085,0,0,0-2.377-2.508,5.246,5.246,0,0,0-2.045-.375,4.983,4.983,0,0,0-2.031.386,4.641,4.641,0,0,0-1.5,1.035,5.114,5.114,0,0,0-.994,1.5,6.369,6.369,0,0,0-.49,1.812Z" transform="translate(-477.238 -852.502)"/>
    <path id="Path_4" data-name="Path 4" class="cls-2" d="M645,842.4V841.11h2.219v-2.122a4.048,4.048,0,0,1,.721-2.536,2.905,2.905,0,0,1,2.448-.931q.4,0,.749.026t.692.077v1.423a4.79,4.79,0,0,0-1.04-.129,2.053,2.053,0,0,0-1.037.22,1.336,1.336,0,0,0-.547.579,2.41,2.41,0,0,0-.216.815q-.043.453-.044.918v1.656h2.881V842.4h-2.882v12.114h-1.725V842.4Z" transform="translate(-625.121 -803.585)"/>
    <path id="Path_5" data-name="Path 5" class="cls-2" d="M746.63,872.722q-.317.051-.835.181a4.77,4.77,0,0,1-1.153.129,2.956,2.956,0,0,1-1.973-.579,2.64,2.64,0,0,1-.675-2.083v-9.81h-2.1v-1.295h2.1V855.54h1.728v3.726h2.8v1.294h-2.8v9.186q0,.492.029.854a1.311,1.311,0,0,0,.173.6.808.808,0,0,0,.447.337,2.735,2.735,0,0,0,.85.1,4.9,4.9,0,0,0,.705-.051q.36-.052.706-.129Z" transform="translate(-710.857 -821.674)"/>
    <path id="Path_6" data-name="Path 6" class="cls-2" d="M872.586,896.9a10.29,10.29,0,0,0-.216-2.135,4.447,4.447,0,0,0-.777-1.772,3.883,3.883,0,0,0-1.513-1.19,5.538,5.538,0,0,0-2.42-.414V889.71a6.169,6.169,0,0,1,3.01.634,4.594,4.594,0,0,1,1.858,2.238h.058v-2.508h1.729v13.4h-1.729Z" transform="translate(-826.3 -852.547)"/>
    <path id="Path_7" data-name="Path 7" class="cls-2" d="M961.08,906.864v-13.4h1.729v13.4Z" transform="translate(-910.708 -855.936)"/>
    <path id="Path_8" data-name="Path 8" class="cls-2" d="M1014.921,890.135h1.729v12.111a10.734,10.734,0,0,1-.3,2.575,5.3,5.3,0,0,1-1.081,2.161,5.359,5.359,0,0,1-2.131,1.488,9.286,9.286,0,0,1-3.485.557,9.388,9.388,0,0,1-2.823-.375,6.32,6.32,0,0,1-1.929-.944,4.192,4.192,0,0,1-1.137-1.254,2.906,2.906,0,0,1-.418-1.281h1.844a2.937,2.937,0,0,0,.634,1.229,3.121,3.121,0,0,0,1.023.751,4.728,4.728,0,0,0,1.311.375,10.524,10.524,0,0,0,1.5.1,6.245,6.245,0,0,0,2.823-.543,3.952,3.952,0,0,0,1.613-1.423,5.093,5.093,0,0,0,.705-1.992,13.8,13.8,0,0,0,.129-2.277,5.187,5.187,0,0,1-2.29,1.876,7.532,7.532,0,0,1-3.039.634,6.986,6.986,0,0,1-2.953-.579,5.958,5.958,0,0,1-2.074-1.552,6.411,6.411,0,0,1-1.224-2.264,8.97,8.97,0,0,1-.4-2.692,9.907,9.907,0,0,1,.374-2.769,5.829,5.829,0,0,1,1.2-2.238,5.68,5.68,0,0,1,2.089-1.488,7.831,7.831,0,0,1,3.087-.543,6.254,6.254,0,0,1,1.469.181,7.475,7.475,0,0,1,1.455.518,5.647,5.647,0,0,1,1.3.854,4.646,4.646,0,0,1,.965,1.164h.058Zm0,6.753a7.488,7.488,0,0,0-.331-2.264,5.308,5.308,0,0,0-.965-1.812,4.466,4.466,0,0,0-1.584-1.2,5.088,5.088,0,0,0-2.161-.44,5.642,5.642,0,0,0-2.016.349,4.648,4.648,0,0,0-1.613,1.022,4.7,4.7,0,0,0-1.081,1.64,5.981,5.981,0,0,0-.386,2.238,7.876,7.876,0,0,0,.231,2.367,5.361,5.361,0,0,0,.921,1.93,4.456,4.456,0,0,0,1.613,1.307,5.231,5.231,0,0,0,2.334.482,4.727,4.727,0,0,0,3.7-1.669,5.394,5.394,0,0,0,.994-1.786,6.7,6.7,0,0,0,.343-2.161Z" transform="translate(-948.527 -852.611)"/>
    <path id="Path_9" data-name="Path 9" class="cls-2" d="M1169.32,857.911V839.28h1.729v7.091a10.8,10.8,0,0,1,2.146-1.6,5.37,5.37,0,0,1,2.664-.621,7.5,7.5,0,0,1,2.564.427,4.3,4.3,0,0,1,1.987,1.488,3.153,3.153,0,0,1,.648,1.49,12.215,12.215,0,0,1,.1,1.592v8.772h-1.729v-8.749a3.722,3.722,0,0,0-.893-2.717,4.054,4.054,0,0,0-2.967-.906,4.655,4.655,0,0,0-1.469.22,4.806,4.806,0,0,0-1.2.579,4.137,4.137,0,0,0-.908.829,3.715,3.715,0,0,0-.579.983,4.507,4.507,0,0,0-.316,1.242q-.058.6-.058,1.294v7.22Z" transform="translate(-1098.859 -806.983)"/>
    <path id="Path_10" data-name="Path 10" class="cls-2" d="M1323.47,872.022q-.317.051-.835.181a4.766,4.766,0,0,1-1.153.129,2.957,2.957,0,0,1-1.973-.579,2.639,2.639,0,0,1-.675-2.083v-9.811h-2.1v-1.294h2.1V854.84h1.729v3.726h2.8v1.294h-2.8v9.186q0,.492.029.854a1.314,1.314,0,0,0,.173.6.809.809,0,0,0,.447.337,2.736,2.736,0,0,0,.85.1,4.922,4.922,0,0,0,.705-.051q.36-.052.706-.129Z" transform="translate(-1232.048 -821.042)"/>
    <path id="Path_11" data-name="Path 11" class="cls-2" d="M1446.359,903.454h-1.729v-13.4h1.729v2.018h.058a4.322,4.322,0,0,1,1.9-1.773,6.063,6.063,0,0,1,2.708-.608,6.444,6.444,0,0,1,1.757.207,4.156,4.156,0,0,1,1.224.557,3.366,3.366,0,0,1,.835.815,5.352,5.352,0,0,1,.561,1.009,4.745,4.745,0,0,1,2-1.953,6.268,6.268,0,0,1,2.866-.634,5.5,5.5,0,0,1,2.434.453,3.515,3.515,0,0,1,1.4,1.19,4.3,4.3,0,0,1,.648,1.695,12.04,12.04,0,0,1,.158,1.967v8.462h-1.729v-9.261a3.506,3.506,0,0,0-.675-2.277,3.122,3.122,0,0,0-2.521-.829,4.613,4.613,0,0,0-1.833.375,4.16,4.16,0,0,0-1.543,1.152,2.909,2.909,0,0,0-.476.789,6.082,6.082,0,0,0-.3.944,6.951,6.951,0,0,0-.158.983q-.043.492-.043.906v7.22H1453.9V894.2a3.507,3.507,0,0,0-.675-2.277,3.123,3.123,0,0,0-2.521-.829,4.612,4.612,0,0,0-1.833.375,4.162,4.162,0,0,0-1.544,1.152,2.916,2.916,0,0,0-.476.789,6.071,6.071,0,0,0-.3.945,7,7,0,0,0-.158.983q-.043.492-.043.906Z" transform="translate(-1347.609 -852.526)"/>
    <path id="Path_12" data-name="Path 12" class="cls-2" d="M1679.24,906.864v-13.4h1.729v13.4Z" transform="translate(-1559.586 -855.936)"/>
    <path id="Path_13" data-name="Path 13" class="cls-2" d="M1723.369,903.464h-1.729v-13.4h1.729v1.863a10.8,10.8,0,0,1,2.145-1.6,5.371,5.371,0,0,1,2.665-.621,7.492,7.492,0,0,1,2.564.427,4.3,4.3,0,0,1,1.987,1.488,3.154,3.154,0,0,1,.648,1.488,12.2,12.2,0,0,1,.1,1.592v8.772h-1.729v-8.746a3.722,3.722,0,0,0-.893-2.717,4.054,4.054,0,0,0-2.968-.906,4.651,4.651,0,0,0-1.469.22,4.813,4.813,0,0,0-1.2.579,4.139,4.139,0,0,0-.908.829,3.713,3.713,0,0,0-.579.983,4.51,4.51,0,0,0-.317,1.242q-.058.6-.058,1.294Z" transform="translate(-1597.895 -852.535)"/>
    <path id="Path_14" data-name="Path 14" class="cls-2" d="M1880.8,839.28h1.729v18.631H1880.8v-2.354h-.058a4.276,4.276,0,0,1-.965,1.177,5.865,5.865,0,0,1-1.3.841,7.437,7.437,0,0,1-1.455.517,6.248,6.248,0,0,1-1.469.181,7.853,7.853,0,0,1-3.087-.543,5.675,5.675,0,0,1-2.089-1.488,5.824,5.824,0,0,1-1.2-2.238,9.91,9.91,0,0,1-.374-2.769,8.977,8.977,0,0,1,.4-2.692,6.412,6.412,0,0,1,1.224-2.264,5.961,5.961,0,0,1,2.074-1.553,6.99,6.99,0,0,1,2.953-.579,7.53,7.53,0,0,1,3.039.634,5.188,5.188,0,0,1,2.29,1.876Zm0,11.878a6.7,6.7,0,0,0-.345-2.161,5.4,5.4,0,0,0-.994-1.786,4.727,4.727,0,0,0-3.7-1.669,5.244,5.244,0,0,0-2.334.482,4.471,4.471,0,0,0-1.613,1.307,5.371,5.371,0,0,0-.921,1.929,7.887,7.887,0,0,0-.231,2.368,5.983,5.983,0,0,0,.386,2.238,4.691,4.691,0,0,0,1.08,1.64,4.644,4.644,0,0,0,1.613,1.023,5.641,5.641,0,0,0,2.016.349,5.085,5.085,0,0,0,2.161-.44,4.46,4.46,0,0,0,1.584-1.2,5.305,5.305,0,0,0,.965-1.812A7.485,7.485,0,0,0,1880.8,851.158Z" transform="translate(-1730.865 -806.983)"/>
    <rect id="Rectangle_1" data-name="Rectangle 1" class="cls-3" width="1.968" height="2.092" rx="0.984" transform="translate(119.535 33.95)"/>
    <rect id="Rectangle_2" data-name="Rectangle 2" class="cls-3" width="1.968" height="2.092" rx="0.984" transform="translate(50.224 33.95)"/>
    <path id="Path_15" data-name="Path 15" class="cls-4" d="M1212.338,530.686a13.024,13.024,0,0,1-9.245-3.8l-4.368-4.087,2.972-3.184,4.419,4.135a8.741,8.741,0,0,0,6.219,2.585h.016a8.737,8.737,0,0,0-.021-17.475h-.027a8.653,8.653,0,0,0-6.164,2.563l-8.469,8.256-3.042-3.122,8.445-8.23a12.949,12.949,0,0,1,9.219-3.823h.04a13.093,13.093,0,1,1,.029,26.186Z" transform="translate(-1121.727 -504.499)"/>
    <path id="Path_16" data-name="Path 16" class="cls-5" d="M932.6,530.684a13.093,13.093,0,1,1,9.261-22.357l4.133,4.143-3.087,3.079-4.138-4.143a8.978,8.978,0,0,0-12.362,0,8.76,8.76,0,0,0,0,12.367,8.974,8.974,0,0,0,12.364,0l9.314-9.243,3.069,3.087-9.31,9.24A13.012,13.012,0,0,1,932.6,530.684Z" transform="translate(-873.149 -504.497)"/>
    <path id="Path_17" data-name="Path 17" class="cls-1" d="M1216.64,545.88" transform="translate(-1141.614 -541.888)"/>
  </g>
</svg>
